<?xml version="1.0" standalone="no"?>
<!DOCTYPE svg PUBLIC "-//W3C//DTD SVG 20010904//EN"
 "http://www.w3.org/TR/2001/REC-SVG-20010904/DTD/svg10.dtd">
<svg version="1.0" xmlns="http://www.w3.org/2000/svg"
 width="965.000000pt" height="965.000000pt" viewBox="0 0 965.000000 965.000000"
 preserveAspectRatio="xMidYMid meet">
<metadata>
Created by potrace 1.14, written by Peter Selinger 2001-2017
</metadata>
<g transform="translate(0.000000,965.000000) scale(0.100000,-0.100000)"
fill="#000000" stroke="none">
<path d="M4665 9512 c-2 -2 -37 -6 -77 -8 -41 -2 -96 -6 -124 -9 -27 -3 -69
-7 -94 -10 -25 -2 -58 -6 -75 -8 -16 -3 -52 -8 -80 -12 -27 -3 -60 -8 -72 -11
-13 -2 -35 -6 -50 -9 -16 -3 -50 -10 -78 -15 -27 -5 -61 -12 -75 -14 -39 -8
-65 -14 -104 -24 -20 -6 -36 -8 -36 -5 0 3 -7 0 -15 -7 -8 -7 -15 -10 -15 -7
0 3 -23 -1 -52 -9 -28 -9 -60 -18 -71 -20 -22 -4 -33 -7 -182 -54 -55 -17
-107 -34 -115 -37 -8 -3 -19 -7 -25 -8 -9 -3 -83 -31 -130 -50 -11 -4 -23 -7
-27 -7 -5 1 -8 -3 -8 -10 0 -6 -3 -9 -6 -6 -5 5 -37 -7 -139 -51 -80 -36 -361
-175 -365 -181 -3 -5 -18 -12 -33 -15 -15 -4 -27 -10 -27 -14 0 -3 -21 -17
-47 -30 -27 -14 -58 -34 -71 -45 -13 -12 -24 -19 -25 -17 -3 6 -90 -49 -98
-61 -3 -5 -10 -10 -15 -11 -17 -1 -74 -39 -74 -48 0 -5 -4 -8 -8 -7 -10 3 -11
3 -198 -138 -72 -55 -157 -121 -188 -149 -32 -27 -79 -68 -104 -90 -70 -60
-329 -321 -392 -394 -30 -35 -60 -69 -65 -75 -39 -42 -175 -216 -168 -216 4 0
-3 -7 -15 -16 -12 -8 -22 -21 -22 -29 0 -7 -4 -15 -8 -17 -4 -1 -23 -25 -42
-53 -19 -27 -39 -54 -43 -60 -25 -31 -147 -226 -147 -234 0 -6 -4 -11 -10 -11
-5 0 -10 -6 -10 -14 0 -7 -7 -19 -15 -26 -8 -7 -12 -16 -9 -21 3 -5 2 -9 -3
-9 -4 0 -13 -10 -19 -23 -6 -12 -40 -77 -76 -144 -36 -66 -93 -186 -127 -265
-35 -78 -67 -152 -72 -163 -58 -127 -208 -609 -194 -623 3 -3 1 -10 -4 -16
-13 -15 -73 -304 -87 -416 -3 -25 -7 -55 -9 -66 -2 -12 -6 -46 -9 -75 -4 -30
-8 -72 -11 -94 -26 -226 -26 -699 0 -925 7 -60 26 -209 30 -240 2 -14 6 -42 9
-62 5 -30 36 -186 62 -308 9 -43 45 -183 54 -215 6 -16 25 -79 44 -140 37
-121 97 -286 127 -352 10 -24 19 -45 19 -49 0 -23 231 -488 257 -516 9 -10 13
-18 9 -18 -4 0 2 -12 13 -26 12 -15 21 -31 21 -36 0 -5 5 -14 10 -21 6 -7 46
-66 89 -132 68 -106 113 -171 194 -279 20 -26 55 -71 105 -131 10 -11 30 -36
46 -55 70 -86 139 -161 251 -274 212 -214 340 -323 575 -497 52 -38 103 -76
113 -84 9 -8 17 -11 17 -7 0 4 4 2 8 -4 4 -5 42 -32 85 -60 122 -77 151 -94
170 -101 9 -3 17 -9 17 -13 0 -7 52 -33 59 -30 2 1 7 -2 10 -7 11 -15 342
-183 361 -183 5 0 10 -5 10 -10 0 -6 6 -10 13 -8 6 1 21 -3 32 -9 36 -20 275
-113 289 -113 8 0 21 -6 28 -12 7 -7 18 -13 23 -13 20 -1 100 -27 111 -36 7
-5 16 -9 20 -8 5 1 12 0 17 -1 4 -1 10 -3 15 -5 4 -1 14 -4 22 -8 8 -3 29 -9
45 -13 17 -4 37 -9 45 -11 8 -2 21 -5 28 -5 6 -1 12 -5 12 -9 0 -5 7 -6 15 -3
8 4 15 2 15 -2 0 -5 10 -10 23 -11 42 -3 74 -11 97 -23 12 -6 24 -9 27 -7 2 3
19 1 36 -4 18 -6 43 -12 57 -14 14 -2 36 -7 50 -10 14 -3 41 -8 60 -11 19 -2
46 -7 60 -10 36 -7 81 -14 113 -16 15 -1 27 -5 27 -8 0 -3 21 -6 48 -8 58 -3
74 -6 89 -15 6 -4 14 -3 18 3 4 6 10 8 15 5 9 -6 97 -15 188 -19 33 -2 64 -6
70 -10 6 -3 13 -2 17 4 4 6 11 7 17 4 15 -9 377 -11 391 -2 6 4 18 1 26 -5 8
-7 12 -7 9 -2 -4 6 17 10 55 11 88 1 288 21 387 38 14 2 47 7 74 10 27 4 59 9
70 11 24 5 67 14 111 21 24 4 145 31 265 59 8 2 16 4 18 5 6 6 96 24 105 22 4
-1 7 3 7 9 0 6 7 9 15 5 8 -3 15 -2 15 2 0 4 8 8 18 9 18 1 245 76 297 98 17
7 62 25 100 40 74 29 125 51 190 81 22 10 42 19 45 19 11 2 148 71 183 92 20
13 37 20 37 16 0 -5 4 -3 8 2 4 6 37 26 74 45 37 19 68 38 68 43 0 4 7 7 15 7
9 0 21 5 28 10 24 20 88 60 97 60 5 0 15 6 22 13 7 6 42 31 78 54 84 55 124
83 158 110 15 13 33 23 40 23 6 0 12 4 12 9 0 4 19 21 42 37 42 29 85 64 119
96 11 10 22 18 27 18 4 0 23 17 42 37 l35 36 -60 -43 c-66 -47 -257 -172 -320
-210 -22 -13 -42 -28 -43 -32 -2 -5 -8 -6 -13 -2 -5 3 -9 0 -9 -7 0 -7 -3 -9
-6 -6 -4 4 -20 -3 -35 -14 -16 -11 -29 -17 -29 -12 0 4 -4 3 -8 -3 -6 -10
-169 -98 -182 -99 -3 -1 -16 -7 -30 -15 -14 -8 -27 -15 -30 -15 -3 -1 -26 -11
-52 -23 -26 -12 -52 -22 -57 -22 -6 0 -11 -5 -11 -10 0 -6 -3 -9 -7 -8 -12 3
-107 -34 -114 -45 -3 -5 -9 -8 -13 -8 -3 0 -11 -1 -18 -4 -7 -2 -31 -9 -53
-16 -22 -6 -44 -15 -50 -19 -12 -9 -67 -24 -77 -22 -5 1 -8 -3 -8 -10 0 -6 -3
-8 -6 -5 -4 3 -15 2 -26 -4 -11 -6 -27 -12 -36 -14 -9 -1 -51 -13 -92 -26 -41
-13 -77 -24 -80 -24 -3 -1 -22 -5 -43 -9 -20 -5 -40 -12 -43 -17 -3 -5 -10 -7
-15 -3 -5 3 -25 0 -43 -6 -40 -13 -84 -23 -108 -24 -10 0 -18 -3 -18 -7 0 -4
-8 -6 -17 -4 -10 1 -22 0 -28 -4 -5 -3 -18 -6 -27 -7 -10 -1 -19 -2 -20 -4 -2
-1 -12 -3 -23 -5 -53 -8 -93 -14 -130 -20 -22 -4 -56 -9 -75 -10 -19 -2 -35
-4 -35 -5 0 -3 -40 -8 -110 -14 -33 -2 -60 -5 -60 -6 0 -3 -126 -10 -207 -12
-43 -1 -78 -6 -78 -9 0 -4 -12 -4 -27 0 -16 4 -43 4 -61 0 -17 -4 -34 -3 -37
2 -3 4 -17 4 -30 -1 -13 -5 -26 -6 -29 -2 -6 9 -59 7 -75 -3 -6 -3 -11 -3 -11
2 0 4 -28 9 -63 9 -65 1 -167 8 -277 20 -36 3 -81 7 -100 9 -19 2 -35 4 -35 5
0 3 -25 7 -83 14 -77 9 -157 22 -157 26 0 1 -9 3 -20 4 -11 2 -47 9 -80 16
-33 7 -64 13 -70 14 -5 1 -16 5 -22 9 -7 5 -13 6 -13 3 0 -2 -15 0 -32 5 -18
6 -42 12 -53 14 -11 3 -51 14 -90 25 -38 12 -77 23 -85 25 -8 2 -27 8 -43 14
-15 6 -38 13 -50 15 -26 6 -166 57 -257 94 -36 15 -67 27 -70 28 -11 2 -237
106 -270 125 -8 4 -41 21 -72 36 -32 15 -58 31 -58 35 0 5 -9 8 -20 8 -11 0
-20 3 -20 8 0 4 -14 14 -32 21 -18 8 -51 27 -74 43 -23 15 -47 28 -53 28 -6 0
-11 5 -11 10 0 6 -4 10 -10 10 -9 0 -72 39 -97 60 -7 5 -14 10 -17 10 -8 0
-141 94 -144 102 -2 4 -8 8 -13 8 -5 0 -20 10 -35 23 -14 12 -28 22 -32 22 -3
0 -16 9 -27 20 -12 11 -36 31 -54 45 -18 14 -41 32 -51 40 -10 8 -37 31 -60
50 -24 19 -63 53 -89 75 -67 57 -357 350 -416 419 -27 33 -65 75 -82 95 -18
20 -33 42 -33 49 0 7 -4 10 -10 7 -5 -3 -10 -2 -10 2 0 5 -27 44 -60 88 -62
80 -240 340 -240 349 0 3 -12 22 -26 43 -14 21 -33 54 -42 73 -9 19 -19 37
-23 40 -19 13 -229 448 -229 473 0 7 -4 17 -10 23 -20 20 -134 354 -180 529
-28 106 -69 279 -75 320 -1 11 -6 36 -10 55 -7 39 -10 52 -20 125 -3 28 -8 61
-11 75 -2 14 -6 52 -10 85 -3 33 -8 71 -10 85 -23 135 -22 665 1 860 2 19 7
60 10 90 3 30 7 66 9 80 2 14 7 48 11 75 4 28 9 59 11 70 4 22 23 125 31 165
2 14 11 54 19 90 9 36 17 72 19 80 1 8 9 35 16 60 7 25 14 52 15 61 4 21 73
238 84 264 4 11 27 72 50 135 24 63 46 120 50 125 4 6 11 21 15 35 19 64 182
383 280 548 55 92 166 256 176 260 5 2 9 8 9 13 0 12 83 125 132 180 10 10 15
19 12 19 -3 0 1 6 8 13 7 8 29 33 48 56 83 100 108 129 156 178 28 29 50 53
48 53 -9 0 240 240 288 276 15 12 24 24 21 28 -3 3 0 6 8 6 8 0 21 9 29 20 8
11 18 20 22 20 4 0 16 8 26 18 27 25 66 57 77 62 5 3 23 18 40 33 16 16 42 35
58 43 15 8 27 18 27 23 0 4 16 16 35 27 19 10 35 23 35 28 0 5 3 7 6 3 3 -3
16 3 27 14 18 16 156 107 232 152 11 7 30 20 44 29 13 10 27 15 32 12 5 -3 9
-1 9 3 0 5 14 17 30 26 17 10 30 15 30 12 0 -3 10 3 22 14 11 11 25 18 30 15
4 -3 8 -1 8 3 0 5 20 17 45 28 25 11 45 24 45 29 0 5 3 7 6 4 3 -4 45 13 92
37 73 37 129 62 152 70 3 1 27 11 53 23 27 12 52 20 57 17 4 -3 13 2 20 10 7
8 16 12 21 9 5 -3 9 -1 9 4 0 8 47 23 66 21 4 0 10 3 13 8 5 8 83 35 96 33 3
0 19 7 36 16 17 8 33 13 37 10 3 -3 10 -2 16 3 11 9 73 30 104 36 9 2 17 4 17
5 0 1 7 3 15 5 8 1 35 8 60 15 25 7 52 14 60 15 8 2 16 4 18 5 2 3 2 3 57 15
22 4 45 9 50 11 6 1 26 5 45 9 19 3 52 10 72 16 20 5 40 9 45 8 4 -1 10 0 13
1 13 4 49 11 95 16 67 7 79 9 90 15 6 2 27 4 47 4 21 0 38 2 38 5 0 3 17 6 38
7 96 6 144 11 149 17 3 3 13 1 23 -4 10 -5 21 -6 25 -2 10 10 51 12 305 12
195 0 345 -4 345 -10 0 -2 120 -12 163 -14 17 0 32 -3 32 -6 0 -3 19 -6 43 -7
23 -1 56 -4 72 -7 17 -3 48 -8 70 -12 22 -3 51 -7 65 -10 14 -2 41 -7 60 -10
19 -3 42 -8 50 -11 8 -3 24 -7 35 -8 11 -1 52 -10 90 -19 39 -10 77 -19 86
-21 23 -5 101 -26 119 -33 8 -3 24 -7 35 -9 11 -2 27 -6 35 -10 8 -3 20 -7 25
-8 14 -4 137 -45 155 -52 8 -3 21 -7 28 -9 45 -9 299 -117 457 -195 56 -27
106 -49 113 -49 7 0 12 -4 12 -8 0 -5 11 -14 25 -20 40 -18 20 11 -23 33 -20
11 -56 32 -79 47 -23 15 -46 28 -51 28 -5 0 -15 7 -22 15 -7 8 -16 12 -21 9
-5 -3 -9 -2 -9 3 0 4 -10 13 -23 19 -12 6 -85 43 -162 83 -149 76 -215 106
-227 103 -5 -1 -8 2 -8 8 0 5 -5 10 -11 10 -6 0 -27 7 -47 16 -46 20 -96 40
-122 49 -7 2 -61 24 -80 32 -8 3 -21 5 -27 4 -7 -1 -13 3 -13 9 0 5 -3 9 -7 8
-5 0 -15 1 -23 5 -17 6 -250 80 -265 83 -28 7 -53 14 -83 23 -18 5 -35 10 -37
10 -3 1 -6 1 -7 2 -2 0 -10 2 -19 4 -9 1 -54 12 -100 24 -80 19 -143 31 -181
34 -10 1 -18 4 -18 7 0 3 -10 6 -22 7 -24 1 -91 10 -143 19 -16 3 -46 7 -65 9
-81 10 -98 12 -108 19 -6 3 -13 2 -17 -4 -4 -6 -12 -7 -18 -3 -7 4 -23 8 -37
9 -234 19 -618 26 -637 11 -8 -5 -13 -6 -13 0 0 8 -37 13 -45 5z"/>
<path d="M5267 9034 c-2 -3 -69 -7 -148 -10 -79 -2 -162 -6 -184 -9 -104 -11
-152 -16 -175 -20 -39 -8 -123 -18 -142 -19 -10 0 -18 -3 -18 -7 0 -4 -8 -6
-17 -5 -10 2 -31 -1 -48 -5 -16 -5 -46 -11 -65 -15 -45 -8 -64 -12 -67 -14 -2
-2 -12 -4 -23 -5 -11 -1 -21 -3 -22 -5 -3 -2 -16 -5 -58 -13 -14 -3 -37 -10
-52 -16 -16 -6 -28 -9 -28 -6 0 2 -24 -4 -52 -14 -29 -10 -57 -19 -63 -20 -35
-6 -91 -27 -97 -36 -4 -5 -8 -7 -8 -3 0 7 -130 -34 -152 -49 -7 -4 -17 -8 -23
-8 -5 0 -28 -8 -49 -18 -22 -10 -50 -20 -63 -23 -12 -3 -27 -12 -33 -19 -6 -8
-18 -11 -26 -8 -8 3 -14 0 -14 -6 0 -6 -7 -11 -15 -11 -9 0 -30 -8 -48 -17
-18 -9 -34 -18 -37 -18 -8 -3 -153 -74 -170 -84 -47 -29 -111 -61 -116 -60 -4
0 -10 -3 -13 -8 -5 -7 -15 -13 -76 -47 -10 -6 -25 -17 -33 -23 -7 -7 -19 -13
-27 -13 -7 0 -15 -3 -17 -8 -1 -4 -28 -23 -58 -42 -30 -19 -59 -38 -65 -42 -5
-5 -55 -40 -110 -79 -55 -39 -105 -77 -111 -85 -6 -8 -16 -14 -22 -14 -6 0
-12 -3 -14 -7 -1 -5 -43 -42 -93 -83 -49 -41 -107 -91 -127 -111 -21 -20 -38
-36 -38 -34 0 1 -44 -41 -98 -94 -54 -53 -97 -97 -96 -99 1 -1 -19 -24 -45
-51 -62 -64 -84 -90 -182 -213 -120 -151 -134 -171 -132 -180 2 -4 -1 -8 -6
-8 -11 0 -151 -215 -231 -355 -34 -60 -71 -125 -81 -142 -10 -18 -15 -33 -11
-33 4 0 15 15 25 33 19 35 101 165 114 182 5 6 23 34 42 63 18 28 37 52 43 52
5 0 7 4 4 8 -3 5 5 19 17 33 12 13 44 54 72 89 27 36 53 67 57 68 5 2 8 8 8
12 0 5 20 30 45 55 24 25 43 47 42 48 -6 7 212 228 303 307 35 30 70 62 79 70
9 9 41 36 71 60 30 25 57 47 60 50 3 3 34 27 70 52 36 26 70 51 75 55 6 4 30
22 55 38 25 17 47 33 48 38 2 4 10 7 17 7 8 0 20 7 28 15 9 8 69 46 134 83
180 104 230 131 235 126 3 -2 11 2 18 11 7 8 16 15 20 15 5 0 41 15 82 33 117
54 133 60 141 63 4 1 9 3 12 4 3 1 8 3 13 5 11 3 64 24 87 35 18 8 57 21 78
26 4 1 10 3 15 4 4 1 10 2 15 1 4 0 7 3 7 7 0 5 6 9 13 10 20 1 56 10 67 17
11 7 47 16 68 17 6 1 12 5 12 10 0 5 5 6 10 3 6 -4 17 -1 25 5 8 7 15 10 15 6
0 -3 11 -1 25 4 14 5 36 12 48 15 90 20 165 36 182 39 40 8 71 14 95 20 14 3
45 8 70 11 25 3 56 7 70 10 14 3 52 7 85 10 33 3 76 7 95 10 92 13 400 22 416
13 5 -4 16 -3 24 2 7 4 23 5 35 0 12 -4 29 -4 38 1 9 6 17 6 17 1 0 -4 19 -8
43 -9 61 -1 198 -11 225 -17 13 -3 43 -6 68 -7 24 -2 44 -5 44 -8 0 -3 15 -7
33 -8 43 -2 96 -10 127 -18 14 -4 36 -7 50 -8 14 -1 31 -6 38 -10 6 -5 17 -5
22 -2 6 3 10 2 10 -4 0 -6 7 -8 15 -5 8 3 20 2 27 -2 7 -5 21 -9 31 -10 9 -1
19 -3 22 -4 6 -3 12 -5 50 -14 49 -11 109 -29 120 -35 5 -3 16 -6 25 -6 13 -1
122 -37 160 -53 8 -3 20 -7 25 -8 6 0 24 -6 40 -13 17 -6 34 -11 39 -10 5 0
12 -3 15 -8 3 -4 24 -14 46 -22 22 -8 66 -26 97 -41 31 -15 59 -25 62 -22 4 3
6 0 6 -6 0 -7 9 -12 19 -12 11 0 26 -7 35 -15 8 -9 19 -16 23 -16 14 -2 96
-42 134 -65 20 -13 40 -20 43 -17 3 4 6 1 6 -5 0 -6 16 -16 35 -23 19 -7 35
-17 35 -21 0 -4 6 -8 13 -8 7 0 23 -9 35 -20 12 -11 24 -20 26 -20 10 0 111
-64 114 -72 2 -4 10 -8 17 -8 7 0 15 -3 17 -7 5 -11 66 -53 77 -53 5 0 11 -3
13 -7 2 -5 41 -37 88 -73 100 -77 103 -78 204 -165 89 -76 386 -377 386 -391
0 -2 11 -16 25 -31 55 -62 80 -93 166 -210 49 -68 89 -127 89 -133 0 -5 4 -10
8 -10 5 0 15 -12 23 -27 8 -16 16 -30 19 -33 12 -12 70 -112 70 -121 0 -5 4
-9 9 -9 5 0 13 -10 17 -22 3 -13 15 -36 26 -51 11 -15 21 -34 22 -41 1 -8 7
-20 13 -27 19 -25 129 -263 170 -369 42 -108 55 -141 58 -150 1 -3 4 -12 8
-20 13 -32 87 -286 103 -355 4 -16 9 -37 11 -45 2 -8 5 -24 7 -35 2 -11 6 -31
10 -45 9 -38 15 -73 36 -215 30 -205 42 -358 42 -555 0 -179 -9 -339 -28 -485
-2 -22 -7 -58 -10 -80 -3 -22 -12 -76 -20 -120 -8 -44 -17 -91 -19 -105 -8
-53 -85 -341 -120 -445 -67 -203 -236 -579 -315 -700 -11 -16 -23 -37 -27 -45
-3 -8 -24 -41 -45 -73 -21 -32 -38 -60 -38 -62 0 -3 -33 -50 -72 -106 -40 -55
-77 -108 -83 -117 -10 -16 -42 -56 -60 -76 -6 -6 -28 -33 -50 -61 -22 -27 -58
-70 -80 -95 -68 -75 -335 -340 -343 -340 -4 0 -14 -8 -23 -17 -8 -10 -34 -34
-58 -53 -24 -19 -48 -40 -55 -45 -6 -6 -51 -40 -101 -77 -49 -38 -95 -72 -102
-78 -7 -5 -16 -10 -22 -10 -5 0 -11 -3 -13 -7 -3 -7 -80 -61 -103 -73 -5 -3
-29 -17 -52 -32 -24 -16 -47 -28 -53 -28 -5 0 -10 -4 -10 -9 0 -5 -8 -11 -17
-14 -10 -3 -54 -26 -98 -51 -88 -49 -177 -93 -186 -92 -3 1 -14 -6 -23 -14
-10 -8 -25 -15 -34 -17 -9 -1 -18 -6 -20 -12 -2 -5 -9 -8 -16 -5 -8 3 -20 -1
-27 -8 -8 -8 -40 -22 -71 -33 -32 -10 -58 -23 -58 -28 0 -4 -4 -6 -8 -3 -5 3
-19 0 -33 -7 -13 -7 -49 -20 -79 -30 -30 -11 -62 -21 -70 -25 -8 -3 -18 -6
-22 -7 -5 -2 -9 -3 -10 -5 -3 -2 -17 -5 -55 -14 -12 -2 -31 -10 -42 -16 -12
-6 -21 -8 -21 -6 0 3 -18 -1 -40 -9 -22 -8 -44 -15 -48 -15 -15 -2 -58 -12
-72 -17 -8 -3 -22 -7 -30 -8 -8 -1 -28 -5 -45 -9 -42 -9 -87 -18 -110 -21 -11
-2 -20 -4 -20 -5 0 -1 -11 -3 -25 -5 -14 -2 -38 -6 -55 -9 -68 -13 -178 -26
-345 -41 -86 -8 -510 -12 -510 -5 0 3 -24 6 -52 7 -70 1 -148 8 -288 28 -14 2
-25 4 -25 5 0 1 -12 3 -26 5 -50 7 -104 16 -169 30 -60 13 -71 15 -90 20 -11
3 -30 7 -42 10 -40 8 -112 27 -128 33 -8 3 -19 7 -25 7 -5 1 -17 4 -25 8 -24
9 -74 20 -82 19 -5 -1 -8 2 -8 6 0 5 -6 9 -12 9 -16 1 -132 40 -175 59 -17 8
-34 14 -37 14 -3 0 -30 11 -60 25 -30 14 -58 25 -62 25 -7 0 -207 93 -234 110
-8 4 -46 25 -85 45 -38 21 -77 44 -86 51 -9 8 -18 12 -21 9 -3 -3 -11 1 -18
10 -7 8 -19 15 -26 15 -8 0 -14 5 -14 10 0 6 -7 10 -15 10 -8 0 -15 3 -15 8 0
4 -13 13 -28 19 -15 7 -36 19 -47 28 -11 8 -63 45 -115 82 -52 37 -96 70 -98
75 -2 4 -10 8 -17 8 -7 0 -15 4 -17 8 -1 5 -25 26 -53 48 -53 41 -87 71 -170
144 -60 54 -275 268 -275 275 0 2 -10 15 -22 27 -20 20 -79 88 -119 136 -41
49 -146 192 -200 272 -35 52 -66 97 -69 100 -6 6 -29 45 -47 82 -13 25 -33 46
-33 35 0 -3 16 -33 35 -67 19 -34 35 -66 35 -71 0 -5 4 -9 9 -9 5 0 11 -8 15
-17 6 -20 26 -53 79 -136 20 -31 37 -60 37 -63 0 -5 17 -29 60 -81 6 -7 10
-15 10 -19 0 -3 10 -19 23 -34 12 -15 42 -55 66 -89 24 -34 48 -61 53 -61 5 0
6 -5 3 -10 -3 -6 1 -13 9 -16 9 -3 16 -12 16 -19 0 -7 4 -15 9 -17 4 -1 32
-32 62 -68 105 -128 300 -327 434 -445 44 -38 85 -74 91 -80 6 -5 26 -21 44
-35 18 -14 41 -32 50 -40 10 -8 28 -23 40 -33 12 -10 50 -38 85 -62 35 -24 61
-46 58 -49 -4 -3 1 -6 10 -6 8 0 22 -6 29 -13 17 -16 62 -44 68 -43 3 1 12 -5
20 -12 48 -40 64 -52 76 -52 7 0 17 -6 21 -12 4 -7 29 -24 56 -38 26 -13 47
-29 47 -34 0 -5 3 -7 6 -3 3 3 27 -7 52 -21 26 -15 61 -34 77 -42 17 -8 32
-17 35 -20 3 -3 46 -24 95 -47 50 -23 117 -54 150 -69 33 -15 65 -29 70 -30 6
-1 43 -16 84 -33 41 -17 80 -31 87 -31 8 0 14 -5 14 -12 0 -6 3 -9 6 -5 4 3
23 0 43 -8 61 -23 169 -55 186 -55 8 0 15 -4 15 -8 0 -4 12 -9 26 -10 14 -1
31 -5 37 -9 7 -4 18 -8 27 -10 33 -5 67 -13 105 -23 22 -6 51 -13 65 -16 34
-7 64 -13 98 -19 15 -3 38 -8 52 -11 14 -3 43 -8 65 -11 22 -3 48 -9 57 -14
12 -7 18 -6 18 1 0 6 5 8 12 4 7 -4 25 -9 40 -11 50 -5 93 -12 93 -13 0 -2 45
-6 190 -16 116 -8 521 -9 568 -1 16 2 27 0 27 -7 0 -7 3 -7 8 -1 4 6 18 11 32
11 58 3 167 14 190 18 14 3 45 8 70 10 70 8 123 16 150 25 14 4 37 7 53 6 15
-1 27 2 27 6 0 5 9 6 20 4 11 -2 20 -1 20 3 0 6 29 12 83 15 9 1 17 4 17 7 0
4 6 7 13 7 16 1 54 10 95 22 17 5 32 7 32 4 0 -3 7 0 15 7 8 7 15 10 15 6 0
-3 16 0 35 8 19 8 35 12 35 9 0 -3 7 0 15 7 8 7 15 10 15 7 0 -3 33 6 73 19
39 14 79 27 87 29 8 2 16 4 18 5 1 2 5 3 10 5 4 1 16 5 27 10 11 4 56 21 100
38 44 16 85 34 91 38 6 5 14 6 17 2 4 -3 7 0 7 7 0 7 3 10 6 7 4 -3 16 -1 28
5 11 7 23 13 26 13 23 6 106 49 112 58 4 7 8 8 8 4 0 -9 223 104 228 116 2 4
10 7 18 7 8 0 14 5 14 10 0 6 3 9 8 8 4 -1 22 7 40 18 39 22 312 204 357 237
57 42 160 121 165 127 3 3 29 25 58 49 99 82 392 363 392 377 0 3 13 17 29 33
23 23 154 179 235 281 30 38 137 194 192 280 200 310 396 746 489 1085 9 33
21 76 26 95 5 19 12 46 15 60 3 13 13 60 24 105 10 44 21 96 24 115 3 19 8 46
11 60 3 14 7 41 10 60 3 19 7 45 9 58 3 13 8 53 12 90 3 37 7 69 9 72 17 27
25 644 11 795 -10 108 -27 257 -32 285 -2 14 -7 41 -10 60 -9 62 -33 182 -54
275 -11 50 -23 101 -26 114 -3 14 -7 28 -10 33 -3 4 -7 18 -9 30 -5 22 -61
211 -72 238 -3 8 -18 49 -33 90 -67 182 -103 263 -201 455 -57 112 -164 297
-221 384 -10 14 -23 36 -29 49 -7 12 -15 22 -19 22 -4 0 -10 8 -14 18 -6 20
-27 52 -42 67 -6 5 -42 53 -82 105 -39 52 -83 109 -97 125 -14 17 -40 47 -58
68 -137 161 -360 380 -507 497 -24 19 -56 46 -70 60 -15 14 -31 27 -36 29 -5
2 -43 29 -84 60 -92 69 -318 218 -382 251 -27 14 -48 28 -48 32 0 5 -9 8 -20
8 -11 0 -20 3 -20 8 0 4 -19 16 -43 27 -23 11 -44 22 -47 25 -4 5 -57 31 -70
35 -3 1 -39 18 -80 37 -162 77 -397 171 -427 171 -7 0 -13 4 -13 9 0 4 -6 8
-13 8 -8 0 -42 9 -77 21 -35 11 -71 21 -82 22 -10 1 -18 4 -18 8 0 4 -15 9
-32 12 -37 5 -69 13 -101 23 -12 4 -31 9 -42 10 -37 6 -50 10 -62 17 -7 5 -13
6 -13 3 0 -2 -15 0 -32 5 -18 6 -52 12 -76 14 -23 2 -46 6 -50 9 -8 5 -81 17
-127 22 -16 1 -30 3 -30 4 0 2 -35 7 -110 14 -27 3 -50 5 -50 6 0 3 -92 9
-203 14 -56 3 -107 8 -112 11 -6 3 -10 2 -10 -3 0 -5 -17 -6 -40 -2 -25 5 -40
4 -40 -3 0 -6 -5 -5 -13 1 -7 6 -18 7 -26 3 -8 -5 -26 -5 -42 -1 -15 5 -30 6
-32 4z"/>
<path d="M7470 8761 c0 -5 5 -13 10 -16 6 -3 10 -2 10 4 0 5 -4 13 -10 16 -5
3 -10 2 -10 -4z"/>
<path d="M3049 7190 c-8 -5 -27 -11 -41 -14 -55 -10 -172 -85 -224 -144 -32
-37 -80 -128 -95 -182 -17 -64 -19 -174 -3 -234 16 -60 44 -126 61 -144 7 -7
13 -17 13 -21 0 -6 80 -88 113 -116 38 -31 175 -82 215 -79 12 1 22 -2 22 -7
0 -5 6 -6 14 -3 8 3 37 7 63 9 26 2 59 6 73 8 36 7 130 49 130 59 0 4 7 8 15
8 23 0 128 112 155 166 14 27 30 52 35 56 6 4 7 8 3 8 -3 0 0 24 7 53 27 106
12 232 -42 335 -26 50 -113 155 -113 137 0 -5 -7 1 -16 13 -8 12 -22 22 -30
22 -8 0 -14 5 -14 11 0 5 -4 7 -10 4 -5 -3 -10 -2 -10 3 0 5 -9 12 -20 15 -11
3 -24 6 -28 7 -4 1 -15 6 -25 11 -38 21 -203 34 -213 17 -4 -7 -9 -6 -13 0 -4
6 -12 7 -22 2z"/>
<path d="M1550 6690 c-6 -11 -8 -20 -6 -20 3 0 10 9 16 20 6 11 8 20 6 20 -3
0 -10 -9 -16 -20z"/>
<path d="M5480 6332 c0 -4 -15 -7 -32 -6 -18 1 -35 -2 -38 -7 -3 -4 -17 -10
-30 -12 -35 -7 -100 -39 -100 -49 0 -5 -4 -7 -8 -4 -13 7 -98 -77 -137 -135
-37 -54 -72 -156 -78 -226 -9 -94 36 -247 92 -316 31 -39 106 -107 124 -113 9
-3 17 -10 17 -15 0 -6 5 -7 10 -4 6 3 10 1 10 -4 0 -6 7 -11 15 -11 9 0 29 -7
44 -15 16 -8 45 -15 65 -17 20 -1 36 -5 36 -8 0 -19 208 10 238 33 6 5 12 6
12 2 0 -5 8 -2 18 6 9 8 29 21 43 28 29 14 135 111 122 111 -4 0 0 5 10 11 9
6 15 14 12 20 -4 5 -2 9 3 9 5 0 19 21 30 48 62 145 60 280 -8 417 -35 69
-140 185 -169 185 -4 0 -19 8 -32 18 -43 33 -219 74 -219 51 0 -5 -11 -4 -25
1 -14 5 -25 6 -25 2z"/>
<path d="M2850 6068 c-25 -5 -49 -10 -55 -11 -38 -9 -118 -61 -166 -107 -61
-60 -96 -124 -113 -210 -9 -39 -11 -411 -11 -1310 l2 -1255 23 -60 c49 -129
135 -210 275 -261 35 -12 59 -16 115 -17 81 -1 127 10 199 45 58 29 159 127
1028 995 530 529 963 965 963 968 0 4 -13 -3 -29 -14 -16 -12 -34 -21 -40 -21
-6 0 -11 -4 -11 -8 0 -8 -104 -49 -106 -41 0 2 -7 -1 -15 -8 -40 -33 -312 -37
-363 -6 -6 4 -19 9 -29 10 -10 2 -37 13 -60 25 -23 12 -45 21 -49 20 -5 -1 -8
2 -8 8 0 5 -7 10 -15 10 -8 0 -15 5 -15 10 0 6 -5 10 -10 10 -16 0 -43 26
-614 595 -298 297 -553 549 -567 560 -26 22 -134 72 -159 74 -76 7 -132 6
-170 -1z"/>
<path d="M5900 5331 c0 -3 -11 -7 -25 -7 -14 -1 -51 -15 -83 -30 -44 -22 -107
-77 -277 -246 -121 -120 -223 -218 -227 -218 -4 0 -10 -9 -13 -20 -3 -11 -10
-20 -14 -20 -7 0 -161 -150 -161 -157 0 -4 -39 -43 -43 -43 -7 0 -117 -113
-117 -120 0 -4 -10 -12 -22 -19 -13 -7 -39 -32 -58 -56 -19 -24 -38 -44 -41
-44 -10 -1 -149 -144 -149 -153 0 -4 -4 -8 -8 -8 -9 0 -252 -240 -252 -248 0
-3 10 4 23 16 13 12 27 20 30 17 4 -3 5 -2 2 1 -2 4 12 16 33 27 54 29 174 78
167 68 -2 -5 14 -2 36 5 22 8 44 12 49 9 5 -3 12 -1 15 5 5 8 11 7 21 -1 9 -7
19 -8 27 -2 10 8 31 10 40 4 1 -1 18 -4 37 -6 103 -12 134 -21 226 -66 73 -36
114 -72 388 -343 198 -196 226 -220 289 -255 78 -44 205 -55 302 -27 6 2 24 9
40 16 17 7 37 14 45 16 8 2 16 8 18 13 2 6 8 11 14 11 5 0 16 6 24 14 7 8 25
23 38 33 36 29 101 135 111 183 1 3 5 20 9 39 10 42 11 1199 2 1261 -10 58
-27 111 -43 131 -7 8 -13 20 -13 26 0 31 -152 159 -201 168 -11 2 -25 7 -31
11 -18 11 -43 15 -130 18 -43 2 -78 0 -78 -3z"/>
<path d="M6495 4692 c-6 -4 -10 -64 -10 -146 l1 -138 39 -21 c22 -11 42 -24
43 -28 2 -5 7 -7 12 -4 4 2 20 -7 34 -20 15 -14 30 -25 35 -25 13 0 137 -126
168 -171 71 -103 122 -226 138 -334 14 -87 9 -219 -9 -304 -20 -92 -79 -217
-141 -300 -28 -37 -139 -143 -180 -171 -48 -33 -195 -105 -207 -102 -4 1 -18
-2 -31 -7 -31 -12 -96 -24 -124 -22 -13 0 -23 -5 -23 -12 0 -7 -3 -8 -8 -2 -4
6 -36 10 -72 10 -56 1 -99 5 -185 20 -11 2 -37 10 -57 19 -21 9 -38 13 -38 9
0 -5 -4 -3 -8 2 -7 11 -64 38 -71 35 -2 -1 -7 2 -10 7 -3 4 -31 25 -61 45 -69
47 -205 178 -185 178 3 0 -3 9 -14 21 -61 66 -128 249 -137 378 l-7 86 -110
112 c-117 117 -146 137 -148 100 -1 -12 -4 -33 -6 -47 -10 -49 -11 -331 -2
-363 5 -18 12 -45 15 -62 11 -65 89 -266 106 -273 4 -2 8 -10 8 -18 0 -8 5
-14 10 -14 6 0 10 -7 10 -15 0 -8 9 -24 20 -35 11 -11 20 -24 20 -29 0 -11
195 -210 221 -226 9 -5 35 -22 57 -38 114 -75 278 -143 365 -150 9 -1 17 -4
17 -7 0 -7 12 -8 150 -13 53 -2 100 -6 106 -10 6 -3 14 -3 18 1 4 4 26 8 49 9
48 2 184 32 219 47 9 4 22 8 30 10 7 1 56 22 108 48 140 68 283 183 369 298
14 19 29 37 32 40 3 3 14 21 25 40 10 19 22 37 26 40 15 11 80 167 102 244 32
111 39 162 38 301 -1 213 -46 377 -149 543 -18 29 -33 56 -33 61 0 5 -3 11 -7
13 -5 2 -26 25 -48 53 -37 47 -100 110 -142 145 -64 53 -193 135 -193 123 0
-4 -6 0 -12 9 -12 14 -63 33 -80 30 -5 -1 -8 3 -8 8 0 6 -9 10 -19 10 -11 0
-23 5 -26 10 -7 12 -16 12 -30 2z"/>
<path d="M4960 3740 c-14 -4 -35 -6 -47 -5 -13 1 -23 -1 -23 -5 0 -3 -10 -6
-22 -6 -22 -1 -68 -8 -133 -20 -16 -4 -46 -8 -65 -9 -19 -2 -35 -4 -35 -5 0
-1 -16 -3 -35 -5 -19 -1 -36 -8 -38 -14 -2 -6 -8 -9 -13 -5 -5 3 -9 0 -9 -6 0
-6 -5 -8 -10 -5 -6 3 -13 -1 -16 -9 -3 -9 -11 -16 -18 -16 -6 0 -22 -17 -36
-38 -26 -38 -31 -50 -98 -262 -22 -69 -66 -206 -98 -305 -62 -196 -67 -241
-34 -303 30 -57 51 -76 107 -99 80 -33 154 -22 219 35 21 17 62 88 62 105 0 4
5 20 11 35 6 15 47 126 91 247 45 121 85 229 90 240 5 11 12 30 15 43 4 15 12
21 21 18 8 -3 14 -2 14 2 0 4 19 8 43 8 72 2 157 10 163 16 3 3 1 23 -5 44
-19 75 -32 171 -34 264 -2 70 -8 76 -67 60z"/>
<path d="M1540 2936 c0 -2 8 -10 18 -17 15 -13 16 -12 3 4 -13 16 -21 21 -21
13z"/>
<path d="M1565 2890 c3 -5 8 -10 11 -10 2 0 4 5 4 10 0 6 -5 10 -11 10 -5 0
-7 -4 -4 -10z"/>
</g>
</svg>
